<?xml version="1.0" encoding="UTF-8"?>
<svg id="Layer_1" data-name="Layer 1" xmlns="http://www.w3.org/2000/svg" xmlns:xlink="http://www.w3.org/1999/xlink" viewBox="0 0 270 265.26">
  <defs>
    <style>
      .cls-1 {
        letter-spacing: 0em;
      }

      .cls-2 {
        letter-spacing: -.02em;
      }

      .cls-3 {
        font-size: 36px;
      }

      .cls-3, .cls-4 {
        fill: #0071bc;
        font-family: Bahnschrift-SemiLightSemiCondensed, Bahnschrift;
        font-variation-settings: 'wght' 350, 'wdth' 87;
      }

      .cls-5 {
        font-family: Bahnschrift-Condensed, Bahnschrift;
        font-size: 25.28px;
        font-variation-settings: 'wght' 400, 'wdth' 75;
      }

      .cls-4 {
        font-size: 24px;
      }
    </style>
  </defs>
  <text class="cls-3" transform="translate(9.54 123.24) rotate(88.87)"><tspan x="0" y="0">P</tspan></text>
  <text class="cls-3" transform="translate(10.19 145.14) rotate(78.75)"><tspan x="0" y="0">O</tspan></text>
  <text class="cls-3" transform="translate(14.88 166.99) rotate(69.12)"><tspan x="0" y="0">L</tspan></text>
  <text class="cls-3" transform="translate(22.01 184.62) rotate(62.36)"><tspan x="0" y="0">I</tspan></text>
  <text class="cls-3" transform="translate(27.56 195.17) rotate(55.42)"><tspan x="0" y="0">T</tspan></text>
  <text class="cls-3" transform="translate(37.81 209.44) rotate(48.9)"><tspan x="0" y="0">I</tspan></text>
  <text class="cls-3" transform="translate(44.62 217.53) rotate(41.76)"><tspan x="0" y="0">C</tspan></text>
  <text class="cls-3" transform="translate(60.06 231.14) rotate(32.17)"><tspan x="0" y="0">A</tspan></text>
  <text class="cls-3" transform="translate(79.39 242.87) rotate(22.42)"><tspan x="0" y="0">L</tspan></text>
  <text class="cls-3" transform="translate(97.14 249.79) rotate(15.61)"><tspan x="0" y="0"> </tspan></text>
  <text class="cls-3" transform="translate(106.62 252.38) rotate(11.09)"><tspan x="0" y="0"> </tspan></text>
  <text class="cls-3" transform="translate(116.31 254.22) rotate(6.58)"><tspan x="0" y="0"> </tspan></text>
  <text class="cls-3" transform="translate(126.06 255.29) rotate(2.12)"><tspan x="0" y="0"> </tspan></text>
  <text class="cls-3" transform="translate(135.89 255.61) rotate(-2.31)"><tspan x="0" y="0"> </tspan></text>
  <text class="cls-3" transform="translate(145.71 255.16) rotate(-6.78)"><tspan x="0" y="0"> </tspan></text>
  <text class="cls-3" transform="translate(155.49 253.94) rotate(-11.29)"><tspan x="0" y="0"> </tspan></text>
  <text class="cls-3" transform="translate(165.91 252) rotate(-18.25)"><tspan x="0" y="0">E</tspan></text>
  <text class="cls-3" transform="translate(188.25 244.06) rotate(-29.38)"><tspan x="0" y="0">C</tspan></text>
  <text class="cls-3" transform="translate(209.03 231.8) rotate(-40.62)"><tspan x="0" y="0">O</tspan></text>
  <text class="cls-3" transform="translate(228.21 214.58) rotate(-52.54)"><tspan x="0" y="0">N</tspan></text>
  <text class="cls-3" transform="translate(244.09 192.64) rotate(-64.71)"><tspan x="0" y="0">O</tspan></text>
  <text class="cls-3" transform="translate(254.82 168.81) rotate(-77.68)"><tspan x="0" y="0">M</tspan></text>
  <text class="cls-3" transform="translate(260.14 138.61) rotate(-89.07)"><tspan x="0" y="0">Y</tspan></text>
  <text class="cls-4" transform="translate(249.51 119.15) rotate(-96.88)"><tspan x="0" y="0"> </tspan></text>
  <text class="cls-4" transform="translate(248.78 113.18) rotate(-99.88)"><tspan x="0" y="0"> </tspan></text>
  <text class="cls-3" transform="translate(54.67 70.78) rotate(-48.11)"><tspan x="0" y="0">C</tspan></text>
  <text class="cls-3" transform="translate(65.83 58.05) rotate(-38.14)"><tspan x="0" y="0">O</tspan></text>
  <text class="cls-3" transform="translate(79.92 46.51) rotate(-26.49)"><tspan x="0" y="0">M</tspan></text>
  <text class="cls-3" transform="translate(100.38 36.45) rotate(-14.74)"><tspan x="0" y="0">P</tspan></text>
  <text class="cls-3" transform="translate(116.3 32.02) rotate(-5.08)"><tspan x="0" y="0">A</tspan></text>
  <text class="cls-3" transform="translate(134.74 30.27) rotate(5.49)"><tspan x="0" y="0">R</tspan></text>
  <text class="cls-3" transform="translate(152.6 31.82) rotate(15.74)"><tspan x="0" y="0">A</tspan></text>
  <text class="cls-3" transform="translate(169.89 36.75) rotate(24.78)"><tspan x="0" y="0">T</tspan></text>
  <text class="cls-3" transform="translate(183.29 43.15) rotate(31.47)"><tspan x="0" y="0">I</tspan></text>
  <text class="cls-3" transform="translate(190.52 47.22) rotate(38.87)"><tspan x="0" y="0">V</tspan></text>
  <text class="cls-3" transform="translate(203.63 57.7) rotate(48.44)"><tspan x="0" y="0">E</tspan></text>
  <text class="cls-5" transform="translate(90.96 77.58) scale(1.17 1)"><tspan class="cls-1" x="0" y="0">P</tspan><tspan class="cls-2" x="10.8" y="0">S</tspan><tspan x="21.21" y="0">C 2339</tspan></text>
  <image width="622" height="454" transform="translate(63.91 89.14) scale(.23 .25)" xlink:href="Adobe/Assets/logo_graph.png"/>
</svg>